<?xml version="1.0" standalone="no"?>
<!DOCTYPE svg PUBLIC "-//W3C//DTD SVG 20010904//EN"
 "http://www.w3.org/TR/2001/REC-SVG-20010904/DTD/svg10.dtd">
<svg version="1.0" xmlns="http://www.w3.org/2000/svg"
 width="259.000000pt" height="259.000000pt" viewBox="0 0 259.000000 259.000000"
 preserveAspectRatio="xMidYMid meet">
<metadata>
Created by potrace 1.11, written by Peter Selinger 2001-2013
</metadata>
<g transform="translate(0.000000,259.000000) scale(0.100000,-0.100000)"
fill="#000000" stroke="none">
<path d="M0 1896 l0 -693 215 0 c145 1 215 4 216 11 0 6 2 103 2 216 l2 205
420 1 c231 1 426 2 433 3 9 1 12 51 12 216 l0 215 -433 0 -434 0 1 260 1 260
-217 0 -218 0 0 -694z"/>
<path d="M869 2583 c-5 -37 -2 -407 2 -415 4 -6 42 -11 85 -11 l79 -1 3 217 2
217 -85 0 c-47 0 -85 -3 -86 -7z"/>
<path d="M1129 2583 c0 -5 -1 -101 -2 -216 -2 -178 0 -207 13 -208 8 -1 47 -1
85 -2 l70 -1 3 217 2 217 -85 0 c-47 0 -85 -3 -86 -7z"/>
<path d="M1305 1371 c-3 -2 -5 -99 -5 -216 l0 -211 418 0 c229 1 424 0 433 -2
13 -3 15 -35 15 -260 l-1 -257 -420 -2 c-231 0 -426 -2 -432 -2 -10 -1 -13
-50 -13 -211 l0 -210 645 0 645 0 0 688 0 688 -640 0 c-352 0 -643 -2 -645 -5z"/>
</g>
</svg>
